<svg xmlns="http://www.w3.org/2000/svg" version="1.1" xmlns:xlink="http://www.w3.org/1999/xlink" xmlns:svgjs="http://svgjs.dev/svgjs" width="1000" height="1000" viewBox="0 0 1000 1000"><rect width="1000" height="1000" fill="#ffffff"></rect><g transform="matrix(0.7,0,0,0.7,149.57575762817396,401.3360517867428)"><svg viewBox="0 0 396 112" data-background-color="#ffffff" preserveAspectRatio="xMidYMid meet" height="282" width="1000" xmlns="http://www.w3.org/2000/svg" xmlns:xlink="http://www.w3.org/1999/xlink"><g id="tight-bounds" transform="matrix(1,0,0,1,0.24000002965266276,-0.020454914464011154)"><svg viewBox="0 0 395.52 112.040909828928" height="112.040909828928" width="395.52"><g><svg viewBox="0 0 574.7860782399816 162.82249990647486" height="112.040909828928" width="395.52"><g transform="matrix(1,0,0,1,0,22.502964893007743)"><svg viewBox="0 0 395.52 117.81657012045937" height="117.81657012045937" width="395.52"><g id="textblocktransform"><svg viewBox="0 0 395.52 117.81657012045937" height="117.81657012045937" width="395.52" id="textblock"><g><svg viewBox="0 0 395.52 69.65132075471698" height="69.65132075471698" width="395.52"><g transform="matrix(1,0,0,1,0,0)"><svg width="395.52" viewBox="1.7000000476837158 -38.349998474121094 218.8300018310547 39.19999694824219" height="69.65132075471698" data-palette-color="#6f605b"><g class="wordmark-text-0" data-fill-palette-color="primary" id="text-0"><path d="M8.75 0.45L8.55 0.4Q7.95 0.25 8 0.25L8 0.25Q7.1-3.45 6-10.8L6-10.8 3.25-28.65 2.8-30.85Q1.7-35.15 1.7-36.9L1.7-36.9Q1.7-37.25 1.93-37.52 2.15-37.8 2.4-37.8L2.4-37.8Q2.55-37.8 2.75-37.7L2.75-37.7Q3-37.6 3.2-37.15L3.2-37.15Q3.4-36.75 3.4-36.4L3.4-36.4 3.5-35.7 4.2-31.85 4.65-29.2 7.15-12.05 7.8-7.3Q8.2-4.9 8.45-2.75L8.45-2.75 8.8-6.3 9.35-12.05 10.55-23Q11-27.65 11.2-29.1L11.2-29.1 11.45-31.7 11.8-34.2Q12.05-35.7 12.15-37L12.15-37Q12.25-37.95 13.1-37.95L13.1-37.95 13.4-37.75 13.3-37.75 13.8-37.35Q13.8-35.9 13.4-33.1L13.4-33.1 13.1-31.15 12.95-29.9Q12.3-24.45 12.15-23.1L12.15-23.1Q11.4-16.75 10.58-9.35 9.75-1.95 9.7-0.65L9.7-0.65Q9.3 0.45 8.75 0.45L8.75 0.45ZM8.35-2.45L8.5-2.45 8.45-2.6 8.35-2.45ZM20.8 0.65Q19.9 0.65 19.8-0.4L19.8-0.4 19.8-1.05Q19.85-1.3 19.85-1.65L19.85-1.65 19.65-1.85Q20.05-2.9 20.05-3.9L20.05-3.9Q20.05-5.05 19.9-7.2L19.9-7.2 19.8-10.5Q19.8-13 19.95-18L19.95-18Q20.15-22.45 20.15-25.55L20.15-25.55 20.05-28.55Q19.95-29.9 19.95-31.55L19.95-31.55Q19.95-32.3 20.3-32.63 20.65-32.95 21.4-32.95L21.4-32.95Q21.9-32.95 22.2-32.65L22.2-32.65Q22.3-32.6 23.65-32.45L23.65-32.45Q24.9-32.3 25.8-32L25.8-32Q26.75-31.7 26.75-31.25L26.75-31.25Q26.75-30.75 25.8-30.25L25.8-30.25Q22.95-31.2 21.75-31.2L21.75-31.2 21.5-30.9Q21.55-30.45 21.55-28.75L21.55-28.75Q21.55-26.6 21.45-24.9L21.45-24.9Q21.4-23.15 21.4-21L21.4-21Q21.4-19.6 22.1-19.6L22.1-19.6 22.9-19.65Q23.3-19.7 23.75-19.7L23.75-19.7Q25.7-19.7 25.7-18.8L25.7-18.8Q25.7-18.25 25.45-17.88 25.2-17.5 24.7-17.5L24.7-17.5Q23.95-17.5 23.55-17.9L23.55-17.9 21.95-18.15 21.7-18.15 21.45-17.9 21.45-17.75Q21.55-16.9 21.55-13.8L21.55-13.8Q21.55-11.85 21.5-10.25L21.5-10.25 21.45-6.7Q21.45-4.75 21.6-2.7L21.6-2.7Q21.65-1.55 22.1-1.18 22.55-0.8 23.75-0.8L23.75-0.8 24.65-0.85Q25.1-0.9 25.65-0.9L25.65-0.9Q27.1-0.9 27.1-0.25L27.1-0.25Q27.1 0.65 24.9 0.65L24.9 0.65 20.8 0.65ZM45.39 0.2Q44.99 0.2 44.82-0.1 44.64-0.4 44.49-1L44.49-1Q44.45-1.4 44.3-1.7L44.3-1.7 44.34-1.85Q43.95-4.2 42.64-7.6L42.64-7.6 41.74-10.2Q41.64-10.3 40.8-12.75L40.8-12.75 40.39-13.95Q35.89-27.85 34.74-29L34.74-29Q34.34-27.65 34.34-25.5L34.34-25.5Q34.34-24.35 34.39-23.5L34.39-23.5 34.45-21.55 34.39-20.35Q34.34-19.8 34.34-19.15L34.34-19.15Q34.34-18.05 34.45-17.25L34.45-17.25Q34.55-15.65 34.55-15.65L34.55-15.65 34.39-15.65Q34.39-7.3 34.74-6.45L34.74-6.45 34.74-1.95Q34.95-1.55 34.95-0.9L34.95-0.9Q34.95-0.5 34.67-0.2 34.39 0.1 33.99 0.1L33.99 0.1Q32.95 0.1 32.95-2.6L32.95-2.6 33.05-4.2Q33.14-4.95 33.14-5.85L33.14-5.85Q33.14-8.25 32.99-13.05L32.99-13.05Q32.84-17.85 32.84-20.25L32.84-20.25Q32.84-21.7 32.99-24.7L32.99-24.7Q33.14-27.65 33.14-29.1L33.14-29.1 33.14-29.75Q33.14-32.2 34.05-32.95L34.05-32.95 34.2-32.8 34.7-32.9Q34.89-32.85 35.14-32.6L35.14-32.6Q35.34-32.4 35.34-32.15L35.34-32.15 35.45-31.85Q35.45-31.75 35.47-31.68 35.49-31.6 35.49-31.6L35.49-31.6Q36.3-28.05 39.09-21.65L39.09-21.65Q41.95-14.9 42.64-12.7L42.64-12.7Q43.14-10.95 43.45-9.6L43.45-9.6Q44.39-5.35 45.7-3.05L45.7-3.05 45.8-3.2Q46.95-14.3 46.95-30.45L46.95-30.45 46.89-31.05Q46.84-31.3 46.84-31.7L46.84-31.7Q46.84-32.75 47.55-32.75L47.55-32.75Q47.99-32.75 48.32-32.3 48.64-31.85 48.64-31.3L48.64-31.3 48.64-27.95 48.39-27.55Q48.39-22.8 47.84-11.95 47.3-1.1 46.8-0.15L46.8-0.15 45.95 0.05 45.95 0.1 45.89 0.05 45.39 0.2ZM59.49-0.3L58.94-0.7 58.89-2.55Q58.84-3.35 58.84-4.35L58.84-4.35Q58.84-4.85 58.89-5.2L58.89-5.2 58.94-6.1Q58.94-6.6 58.74-7.3L58.74-7.3Q58.74-10.65 58.24-19.75L58.24-19.75Q57.74-28.55 57.69-31.7L57.69-31.7Q54.59-31.7 53.54-31.85L53.54-31.85Q52.54-32.1 52.54-32.65L52.54-32.65Q52.79-33.2 53.49-33.2L53.49-33.2Q54.99-33.2 57.84-33L57.84-33Q60.44-32.75 62.19-32.75L62.19-32.75 63.24-32.75 64.29-32.8Q65.19-32.8 65.19-32.15L65.19-32.15Q65.19-31.85 64.87-31.68 64.54-31.5 64.09-31.5L64.09-31.5Q63.09-31.5 61.99-31.6L61.99-31.6 59.84-31.7Q59.64-31.7 59.64-31.55L59.64-31.55Q59.59-31.4 59.59-30.6L59.59-30.6Q59.59-25.75 60.19-15.9L60.19-15.9Q60.74-5.7 60.74-1.25L60.74-1.25Q60.74-0.9 60.32-0.6 59.89-0.3 59.49-0.3L59.49-0.3ZM80.34 0.45Q79.59 0.45 79.39 0.28 79.19 0.1 79.09-0.65L79.09-0.65Q78.64-4.3 78.54-5.2L78.54-5.2 78.29-7.2Q77.19-7.45 75.79-7.45L75.79-7.45 73.99-7.55Q72.79-7.7 72.24-7.7L72.24-7.7Q71.94-7.7 71.89-7.45L71.89-7.45Q71.89-7.3 71.84-7.3L71.84-7.3 71.74-6.3Q71.69-5.4 71.19-2.7L71.19-2.7Q70.94-1.35 70.59-0.6L70.59-0.6Q70.19 0.25 69.84 0.25L69.84 0.25Q69.54 0.25 69.19-0.03 68.84-0.3 68.84-0.6L68.84-0.6 68.89-0.75 68.94-0.9Q69.84-4.45 70.44-7.95L70.44-7.95 71.04-11.05 71.64-14.85Q71.64-14.85 72.19-18.15L72.19-18.15Q72.44-19.5 73.09-22.5L73.09-22.5Q73.79-25.9 73.94-27.15L73.94-27.15Q73.99-27.3 74.14-29L74.14-29Q74.34-30.9 74.49-31.8L74.49-31.8Q74.64-33.1 74.79-33.3L74.79-33.3 75.14-33.3Q75.29-33.25 75.49-33.25L75.49-33.25Q76.09-33.25 76.39-33.55L76.39-33.55Q76.74-33.55 77.02-33.33 77.29-33.1 77.29-32.8L77.29-32.8Q77.29-30.4 77.64-27.3L77.64-27.3Q77.84-25.7 77.94-24.65L77.94-24.65Q78.49-18.2 80.74-0.45L80.74-0.45 80.74-0.3Q80.74 0.2 80.34 0.45L80.34 0.45ZM77.54-8.55L78.04-8.55Q77.54-15.75 76.14-29.8L76.14-29.8 73.44-16.45Q72.29-10.7 72.29-9.2L72.29-9.2Q72.29-8.95 74.19-8.75 76.09-8.55 77.54-8.55L77.54-8.55Z" fill="#6f605b" data-fill-palette-color="primary"></path><path d="M95.09 0.1Q94.49 0.1 93.89-0.2 93.29-0.5 93.29-0.9L93.29-0.9Q93.29-1.2 93.69-1.9L93.69-1.9Q94.09-2.55 94.04-2.9L94.04-2.9 93.89-7.3 93.54-20.95 93.44-27Q93.39-32.55 93.19-33.95L93.19-33.95Q93.09-34.5 92.79-35.2L92.79-35.2Q92.44-36.15 92.44-36.55L92.44-36.55Q92.44-37.75 96.24-37.75L96.24-37.75 96.49-37.75Q99.04-37.75 100.89-36L100.89-36Q102.34-34.65 103.49-31.75L103.49-31.75Q104.29-29.45 104.69-26.6L104.69-26.6Q104.89-25.1 105.04-22L105.04-22 105.04-20.45Q105.04-17.35 104.21-13.73 103.39-10.1 101.89-6.95L101.89-6.95Q100.99-4.95 99.56-3.35 98.14-1.75 96.84-0.83 95.54 0.1 95.09 0.1L95.09 0.1ZM95.59-2.45L95.84-2.45Q97.69-3.4 99.14-5.23 100.59-7.05 101.44-9.25L101.44-9.25Q102.19-11.1 102.69-13.48 103.19-15.85 103.39-17.9L103.39-17.9Q103.54-19.7 103.54-21.35L103.54-21.35Q103.54-35.95 95.49-35.95L95.49-35.95Q94.44-35.95 94.44-35.4L94.44-35.4Q94.44-33.65 94.64-31.25L94.64-31.25Q94.84-28.8 94.84-27.1L94.84-27.1Q94.84-24.35 95.24-17.55L95.24-17.55Q95.59-11.65 95.59-8.05L95.59-8.05 95.59-2.45ZM112.89 0.65Q111.99 0.65 111.89-0.4L111.89-0.4 111.89-1.05Q111.94-1.3 111.94-1.65L111.94-1.65 111.74-1.85Q112.14-2.9 112.14-3.9L112.14-3.9Q112.14-5.05 111.99-7.2L111.99-7.2 111.89-10.5Q111.89-13 112.04-18L112.04-18Q112.24-22.45 112.24-25.55L112.24-25.55 112.14-28.55Q112.04-29.9 112.04-31.55L112.04-31.55Q112.04-32.3 112.39-32.63 112.74-32.95 113.49-32.95L113.49-32.95Q113.99-32.95 114.29-32.65L114.29-32.65Q114.39-32.6 115.74-32.45L115.74-32.45Q116.99-32.3 117.89-32L117.89-32Q118.83-31.7 118.83-31.25L118.83-31.25Q118.83-30.75 117.89-30.25L117.89-30.25Q115.04-31.2 113.83-31.2L113.83-31.2 113.58-30.9Q113.64-30.45 113.64-28.75L113.64-28.75Q113.64-26.6 113.54-24.9L113.54-24.9Q113.49-23.15 113.49-21L113.49-21Q113.49-19.6 114.19-19.6L114.19-19.6 114.99-19.65Q115.39-19.7 115.83-19.7L115.83-19.7Q117.79-19.7 117.79-18.8L117.79-18.8Q117.79-18.25 117.54-17.88 117.29-17.5 116.79-17.5L116.79-17.5Q116.04-17.5 115.64-17.9L115.64-17.9 114.04-18.15 113.79-18.15 113.54-17.9 113.54-17.75Q113.64-16.9 113.64-13.8L113.64-13.8Q113.64-11.85 113.58-10.25L113.58-10.25 113.54-6.7Q113.54-4.75 113.69-2.7L113.69-2.7Q113.74-1.55 114.19-1.18 114.64-0.8 115.83-0.8L115.83-0.8 116.74-0.85Q117.19-0.9 117.74-0.9L117.74-0.9Q119.19-0.9 119.19-0.25L119.19-0.25Q119.19 0.65 116.99 0.65L116.99 0.65 112.89 0.65Z" fill="#f36527" data-fill-palette-color="secondary"></path><path d="M138.14 0.8Q134.39 0.8 132.59-4.6L132.59-4.6Q130.79-10 130.79-21.4L130.79-21.4Q130.79-23.85 130.89-25.75L130.89-25.75Q130.99-28.05 131.59-30.7L131.59-30.7Q131.84-32.05 132.21-33.05 132.59-34.05 133.24-35.15L133.24-35.15Q134.39-37.15 136.44-37.95L136.44-37.95Q137.54-38.35 138.74-38.35L138.74-38.35Q140.24-38.35 140.24-37.5L140.24-37.5Q140.24-36.9 139.49-36.9L139.49-36.9Q139.29-36.9 138.79-37.05L138.79-37.05 138.09-37.15Q136.44-37.15 135.24-35.8L135.24-35.8Q134.39-34.8 133.59-32.35L133.59-32.35Q133.04-30.35 132.84-27.9L132.84-27.9Q132.69-26.55 132.54-23.5L132.54-23.5 132.49-20.2 132.49-17.45Q132.49-12.6 133.19-8.6L133.19-8.6Q133.69-6.1 134.36-4.45 135.04-2.8 136.19-1.75L136.19-1.75Q137.44-0.6 138.89-0.6L138.89-0.6Q141.54-0.6 143.14-3.1L143.14-3.1Q143.14-4.45 142.94-6.65L142.94-6.65Q142.79-7.75 142.54-8.7L142.54-8.7Q142.24-9.55 141.84-9.55L141.84-9.55 140.89-9.45 139.84-9.35Q138.69-9.35 138.69-10.2L138.69-10.2Q138.69-10.6 140.09-10.95 141.49-11.3 142.44-11.3L142.44-11.3Q143.24-11.3 143.61-10.73 143.99-10.15 143.99-9.2L143.99-9.2Q143.99-8.1 144.49-4.75L144.49-4.75Q144.99-1.95 144.99-0.3L144.99-0.3Q144.99 0.5 144.34 0.5L144.34 0.5Q143.14 0.5 143.14-0.6L143.14-0.6 143.19-0.75 143.19-0.85Q140.34 0.8 138.14 0.8L138.14 0.8ZM160.39 0.45Q159.64 0.45 159.44 0.28 159.24 0.1 159.14-0.65L159.14-0.65Q158.69-4.3 158.59-5.2L158.59-5.2 158.34-7.2Q157.24-7.45 155.84-7.45L155.84-7.45 154.03-7.55Q152.84-7.7 152.28-7.7L152.28-7.7Q151.99-7.7 151.94-7.45L151.94-7.45Q151.94-7.3 151.89-7.3L151.89-7.3 151.78-6.3Q151.74-5.4 151.24-2.7L151.24-2.7Q150.99-1.35 150.64-0.6L150.64-0.6Q150.24 0.25 149.89 0.25L149.89 0.25Q149.59 0.25 149.24-0.03 148.89-0.3 148.89-0.6L148.89-0.6 148.94-0.75 148.99-0.9Q149.89-4.45 150.49-7.95L150.49-7.95 151.09-11.05 151.69-14.85Q151.69-14.85 152.24-18.15L152.24-18.15Q152.49-19.5 153.14-22.5L153.14-22.5Q153.84-25.9 153.99-27.15L153.99-27.15Q154.03-27.3 154.19-29L154.19-29Q154.39-30.9 154.53-31.8L154.53-31.8Q154.69-33.1 154.84-33.3L154.84-33.3 155.19-33.3Q155.34-33.25 155.53-33.25L155.53-33.25Q156.14-33.25 156.44-33.55L156.44-33.55Q156.78-33.55 157.06-33.33 157.34-33.1 157.34-32.8L157.34-32.8Q157.34-30.4 157.69-27.3L157.69-27.3Q157.89-25.7 157.99-24.65L157.99-24.65Q158.53-18.2 160.78-0.45L160.78-0.45 160.78-0.3Q160.78 0.2 160.39 0.45L160.39 0.45ZM157.59-8.55L158.09-8.55Q157.59-15.75 156.19-29.8L156.19-29.8 153.49-16.45Q152.34-10.7 152.34-9.2L152.34-9.2Q152.34-8.95 154.24-8.75 156.14-8.55 157.59-8.55L157.59-8.55ZM174.53 0.85L173.83 0.6Q173.23-0.05 172.53-2.85 171.83-5.65 171.23-9.15L171.23-9.15Q170.83-12 170.08-14.8L170.08-14.8Q169.48-17.3 168.93-17.3L168.93-17.3 168.78-17.3Q167.68-17.3 167.68-16.6L167.68-16.6Q167.68-13 168.08-5.65L168.08-5.65Q168.28-1.15 168.53-0.4L168.53-0.4 168.13 0.45 167.43 0.45 167.03 0.05Q166.23-23.05 166.23-31.45L166.23-31.45Q166.23-32 166.31-32.35 166.38-32.7 166.63-33L166.63-33Q166.83-33.35 167.33-33.35L167.33-33.35Q169.88-33.35 171.43-32.1 172.98-30.85 172.98-28.5L172.98-28.5 172.98-24.85Q172.98-23.9 172.36-22.3 171.73-20.7 170.98-19.35L170.98-19.35 170.33-18.1Q170.88-15.55 172.51-8.93 174.13-2.3 174.28-1.9L174.28-1.9Q174.33-1.85 174.41-1.65 174.48-1.45 174.73-1.05L174.73-1.05Q175.08-0.35 175.08 0.15L175.08 0.15Q175.08 0.85 174.53 0.85L174.53 0.85ZM167.93-18.55Q168.88-18.55 169.63-19.5 170.38-20.45 170.83-21.95L170.83-21.95Q171.63-25 171.63-26.8L171.63-26.8Q171.63-27.95 171.51-28.7 171.38-29.45 171.08-30.3L171.08-30.3Q170.48-32.05 168.23-32.05L168.23-32.05Q167.98-32.05 167.83-31.63 167.68-31.2 167.68-30.75L167.68-30.75Q167.68-27.4 167.78-24.7L167.78-24.7Q167.83-22 167.83-18.65L167.83-18.65 167.93-18.55ZM190.53 0.45Q189.78 0.45 189.58 0.28 189.38 0.1 189.28-0.65L189.28-0.65Q188.83-4.3 188.73-5.2L188.73-5.2 188.48-7.2Q187.38-7.45 185.98-7.45L185.98-7.45 184.18-7.55Q182.98-7.7 182.43-7.7L182.43-7.7Q182.13-7.7 182.08-7.45L182.08-7.45Q182.08-7.3 182.03-7.3L182.03-7.3 181.93-6.3Q181.88-5.4 181.38-2.7L181.38-2.7Q181.13-1.35 180.78-0.6L180.78-0.6Q180.38 0.25 180.03 0.25L180.03 0.25Q179.73 0.25 179.38-0.03 179.03-0.3 179.03-0.6L179.03-0.6 179.08-0.75 179.13-0.9Q180.03-4.45 180.63-7.95L180.63-7.95 181.23-11.05 181.83-14.85Q181.83-14.85 182.38-18.15L182.38-18.15Q182.63-19.5 183.28-22.5L183.28-22.5Q183.98-25.9 184.13-27.15L184.13-27.15Q184.18-27.3 184.33-29L184.33-29Q184.53-30.9 184.68-31.8L184.68-31.8Q184.83-33.1 184.98-33.3L184.98-33.3 185.33-33.3Q185.48-33.25 185.68-33.25L185.68-33.25Q186.28-33.25 186.58-33.55L186.58-33.55Q186.93-33.55 187.21-33.33 187.48-33.1 187.48-32.8L187.48-32.8Q187.48-30.4 187.83-27.3L187.83-27.3Q188.03-25.7 188.13-24.65L188.13-24.65Q188.68-18.2 190.93-0.45L190.93-0.45 190.93-0.3Q190.93 0.2 190.53 0.45L190.53 0.45ZM187.73-8.55L188.23-8.55Q187.73-15.75 186.33-29.8L186.33-29.8 183.63-16.45Q182.48-10.7 182.48-9.2L182.48-9.2Q182.48-8.95 184.38-8.75 186.28-8.55 187.73-8.55L187.73-8.55ZM202.23 0.35Q199.93 0.35 198.83-0.2 197.73-0.75 197.2-2.33 196.68-3.9 196.28-7.35L196.28-7.35Q195.68-12.4 195.68-15.2L195.68-15.2Q195.68-16.9 195.88-19.1L195.88-19.1 196.18-22.25Q196.43-26 196.75-27.93 197.08-29.85 198.2-31.33 199.33-32.8 201.68-33.05L201.68-33.05Q201.93-33.1 202.48-33.1L202.48-33.1Q204.03-33.1 204.03-32.4L204.03-32.4Q204.03-32.1 203.7-31.88 203.38-31.65 203.03-31.65L203.03-31.65 202.53-31.7 202.08-31.75Q201.23-31.75 200.55-31.2 199.88-30.65 199.43-29.6L199.43-29.6Q198.38-27.1 198.08-24.7L198.08-24.7Q197.68-21.55 197.58-19.2L197.58-19.2 197.53-15.35Q197.53-12.9 197.68-11.7L197.68-11.7Q198.03-11.15 198.15-10.03 198.28-8.9 198.38-6.95L198.38-6.95Q198.48-5.2 198.83-3.98 199.18-2.75 200.08-1.95L200.08-1.95Q201.08-1.1 202.83-1.1L202.83-1.1Q204.28-1.1 204.88-2.7L204.88-2.7Q205.58-4.4 205.68-6.2L205.68-6.2Q205.83-8.45 205.83-10L205.83-10 205.83-12.75Q205.33-13.25 204.08-13.25L204.08-13.25 203.68-13.25Q203.43-13.2 203.13-13.2L203.13-13.2Q201.93-13.2 201.93-13.8L201.93-13.8Q201.93-14.65 203.13-14.65L203.13-14.65Q203.98-14.65 204.53-14.6L204.53-14.6 205.63-14.55Q206.58-14.4 207.13-14.2L207.13-14.2Q207.73-14 207.73-13.65L207.73-13.65Q207.73-13 207.43-11.8L207.43-11.8Q207.18-10.4 207.18-9.9L207.18-9.9Q207.18-7.8 207.28-6.1L207.28-6.1Q207.33-4.35 207.33-2.25L207.33-2.25Q204.78 0.35 202.23 0.35L202.23 0.35ZM214.23 0.65Q213.33 0.65 213.23-0.4L213.23-0.4 213.23-1.05Q213.28-1.3 213.28-1.65L213.28-1.65 213.08-1.85Q213.48-2.9 213.48-3.9L213.48-3.9Q213.48-5.05 213.33-7.2L213.33-7.2 213.23-10.5Q213.23-13 213.38-18L213.38-18Q213.58-22.45 213.58-25.55L213.58-25.55 213.48-28.55Q213.38-29.9 213.38-31.55L213.38-31.55Q213.38-32.3 213.73-32.63 214.08-32.95 214.83-32.95L214.83-32.95Q215.33-32.95 215.63-32.65L215.63-32.65Q215.73-32.6 217.08-32.45L217.08-32.45Q218.33-32.3 219.23-32L219.23-32Q220.18-31.7 220.18-31.25L220.18-31.25Q220.18-30.75 219.23-30.25L219.23-30.25Q216.38-31.2 215.18-31.2L215.18-31.2 214.93-30.9Q214.98-30.45 214.98-28.75L214.98-28.75Q214.98-26.6 214.88-24.9L214.88-24.9Q214.83-23.15 214.83-21L214.83-21Q214.83-19.6 215.53-19.6L215.53-19.6 216.33-19.65Q216.73-19.7 217.18-19.7L217.18-19.7Q219.13-19.7 219.13-18.8L219.13-18.8Q219.13-18.25 218.88-17.88 218.63-17.5 218.13-17.5L218.13-17.5Q217.38-17.5 216.98-17.9L216.98-17.9 215.38-18.15 215.13-18.15 214.88-17.9 214.88-17.75Q214.98-16.9 214.98-13.8L214.98-13.8Q214.98-11.85 214.93-10.25L214.93-10.25 214.88-6.7Q214.88-4.75 215.03-2.7L215.03-2.7Q215.08-1.55 215.53-1.18 215.98-0.8 217.18-0.8L217.18-0.8 218.08-0.85Q218.53-0.9 219.08-0.9L219.08-0.9Q220.53-0.9 220.53-0.25L220.53-0.25Q220.53 0.65 218.33 0.65L218.33 0.65 214.23 0.65Z" fill="#6f605b" data-fill-palette-color="primary"></path></g></svg></g></svg></g><g transform="matrix(1,0,0,1,163.310208,86.09432595320754)"><svg viewBox="0 0 232.209792 31.722244167251834" height="31.722244167251834" width="232.209792"><g transform="matrix(1,0,0,1,0,0)"><svg width="232.209792" viewBox="0.75 -32.5 313.260009765625 42.79999923706055" height="31.722244167251834" data-palette-color="#f36527"><path d="M9.35-1.25L9.35-1.25Q4.95 2.15 2.9 2.15L2.9 2.15Q1.8 2.15 1.28 1.07 0.75 0 0.75-1.25L0.75-1.25Q0.75-3.65 2.78-8.45 4.8-13.25 6.65-13.25L6.65-13.25Q7.6-13.25 8.28-9.5 8.95-5.75 9.65-4.05L9.65-4.05Q13.05-7.65 19.5-16.05L19.5-16.05Q27.6-26.7 30.25-27.7L30.25-27.7Q31.15-28.05 32.1-28.05 33.05-28.05 33.68-27.65 34.3-27.25 34.3-26.65L34.3-26.65Q34.3-25.8 32.85-25.65L32.85-25.65Q31.1-24.7 27.45-21.05L27.45-21.05Q23.8-17.5 21.6-14.4L21.6-14.4Q16.25-6.95 10.6-2.25L10.6-2.25Q13.4 1.9 19.4 1.9L19.4 1.9Q20.05 1.9 21.35 1.8L21.35 1.8Q35.25 0.5 41.05-10.25L41.05-10.25Q43.4-14.55 43.4-18.75 43.4-22.95 40.35-26.3L40.35-26.3Q37.9-29.05 35.02-29.7 32.15-30.35 29.15-30.35L29.15-30.35Q21.45-30.35 14.95-26.8L14.95-26.8Q8.1-23.05 8.1-18.4L8.1-18.4Q8.1-17.15 8.78-16.35 9.45-15.55 9.7-15.45L9.7-15.45 9.4-15.45Q8.1-15.7 7.1-16.75L7.1-16.75Q6-18.05 6-19.5L6-19.5Q6-24.5 12.28-28.1 18.55-31.7 27-31.7L27-31.7Q30.9-31.7 35-30.8 39.1-29.9 42.45-26.5L42.45-26.5Q46.3-22.5 46.3-17.45L46.3-17.45Q46.3-13.7 44.1-9.7L44.1-9.7Q40.3-2.8 32.75 0.4L32.75 0.4Q26.7 2.95 19.7 2.95 12.7 2.95 9.35-1.25ZM2.55-1.45L2.55-1.45Q2.55 0.1 3.15 1.25L3.15 1.25Q5.3 0.3 8.35-2.7L8.35-2.7Q6.9-5.1 6.53-6.48 6.15-7.85 6-10.1L6-10.1Q2.55-5.15 2.55-1.45ZM9.7-15.45L9.7-15.45Q9.75-15.45 9.8-15.5L9.8-15.5Q9.8-15.4 9.78-15.4 9.75-15.4 9.7-15.45ZM48.6 0.65L48.6 0.65Q48.05 0.65 47.6 0.5L47.6 0.5Q44.4-0.4 44.4-3.1L44.4-3.1Q44.4-6.6 48.8-11.2 53.2-15.8 56.7-15.8L56.7-15.8Q57.85-15.8 58.57-15.18 59.3-14.55 59.3-13.65L59.3-13.65Q59.3-10.85 55.07-8.3 50.85-5.75 48.2-5.75L48.2-5.75Q47.8-5.75 47.5-5.85L47.5-5.85Q46.75-4.5 46.75-3L46.75-3Q46.75-0.4 49.22-0.4 51.7-0.4 55.65-3.75L55.65-3.75Q58.7-6.2 60.85-8.95L60.85-8.95Q61.3-9.55 61.62-9.55 61.95-9.55 61.95-9.25 61.95-8.95 61.55-8.4L61.55-8.4Q58.85-4.85 55.05-2.1 51.25 0.65 48.6 0.65ZM58.05-13.75L58.05-13.75Q58.05-14.35 56.77-14.35 55.5-14.35 53.15-12.4L53.15-12.4Q50-9.8 48.25-6.95L48.25-6.95Q48.55-6.85 48.9-6.85L48.9-6.85Q50.8-6.85 53.97-8.88 57.15-10.9 57.95-13.3L57.95-13.3Q58.05-13.55 58.05-13.75ZM69.1-20.5Q69.85-20.5 70.52-20 71.2-19.5 71.2-18.88 71.2-18.25 70.57-17.78 69.95-17.3 69.2-17.3 68.45-17.3 67.82-17.82 67.2-18.35 67.2-19.05L67.2-19.05Q67.2-20.5 69.1-20.5L69.1-20.5ZM68.15-13.6L68.15-13.6Q68.15-13.3 64.2-6.5L64.2-6.5Q60.35 0.85 58.25 3.75L58.25 3.75Q53.7 10.25 49.7 10.25L49.7 10.25Q48.2 10.25 46.92 9.28 45.65 8.3 45.65 7.33 45.65 6.35 46.1 6.35L46.1 6.35Q46.15 6.35 47.12 7.63 48.1 8.9 49.4 8.9L49.4 8.9Q53.4 8.9 58.5-0.15L58.5-0.15Q61.65-5.8 62.8-9.3L62.8-9.3Q62.2-8.6 60.72-7.25 59.25-5.9 58.92-5.9 58.6-5.9 58.6-6.05L58.6-6.05Q58.6-6.5 59.4-7.2 60.2-7.9 61.55-9.85 62.9-11.8 63.15-12L63.15-12 64.8-13.75Q65.8-14.7 66.97-14.7 68.15-14.7 68.15-13.6ZM85.54-14.95L85.54-14.95 86.24-15.1Q86.79-15.1 87.29-14.65 87.79-14.2 87.79-13.95 87.79-13.7 84.69-9.13 81.59-4.55 81.59-2.75L81.59-2.75Q81.59-2.6 81.64-2.45L81.64-2.45Q81.89-1.3 82.74-1.3L82.74-1.3Q85.34-1.3 92.24-9.9L92.24-9.9Q92.39-10.1 92.59-10.1 92.79-10.1 92.79-9.73 92.79-9.35 92.34-8.75L92.34-8.75Q85.94-0.2 82.59-0.2L82.59-0.2Q82.14-0.2 81.74-0.35L81.74-0.35Q79.54-1.2 79.54-3.65L79.54-3.65Q79.54-4.5 79.74-5.35L79.74-5.35 76.64-2.35Q73.69 0.25 72.37 0.25 71.04 0.25 69.84-0.6L69.84-0.6Q68.49-1.6 68.49-3.25L68.49-3.25Q68.49-6.9 73.59-11.98 78.69-17.05 82.94-17.05L82.94-17.05Q84.59-17.05 85.14-15.9L85.14-15.9Q85.29-15.5 85.39-15.23 85.49-14.95 85.54-14.95ZM70.59-2.65L70.59-2.65Q70.59-0.85 71.84-0.85L71.84-0.85Q74.74-0.85 79.74-7.2L79.74-7.2 85.04-14.5Q84.64-15.2 83.74-15.2L83.74-15.2Q80.69-15.2 75.64-10.48 70.59-5.75 70.59-2.65ZM104.29 4.1L104.29 4.1Q103.74 4.1 103.74 2.2L103.74 2.2Q103.74 1.5 103.84 0.95L103.84 0.95Q100.64-1.5 100.64-6.25L100.64-6.25Q100.64-9.85 102.69-14.4L102.69-14.4Q105.29-20.15 112.84-25.6L112.84-25.6Q121.54-31.8 130.84-31.8L130.84-31.8Q135.84-31.8 138.44-29.85 141.04-27.9 141.04-25L141.04-25Q141.04-23.2 139.64-20.55L139.64-20.55Q140.04-19.2 140.04-17.8L140.04-17.8Q140.04-11.55 133.64-5.85L133.64-5.85Q127.94-0.75 121.59 1.35L121.59 1.35Q131.74 8.65 135.29 8.65L135.29 8.65Q136.09 8.65 136.74 8.22 137.39 7.8 137.39 7.23 137.39 6.65 137.04 6.15L137.04 6.15Q136.89 5.8 136.89 5.6L136.89 5.6Q136.89 4.9 137.76 5.85 138.64 6.8 138.64 7.85 138.64 8.9 137.64 9.6 136.64 10.3 135.04 10.3L135.04 10.3Q129.84 10.3 118.49 2.25L118.49 2.25Q115.39 2.95 111.54 2.95 107.69 2.95 105.34 1.85L105.34 1.85Q104.64 4.1 104.29 4.1ZM138.99-22.05L138.99-22.05Q139.49-23.25 139.49-24.73 139.49-26.2 138.39-27.75L138.39-27.75Q136.24-30.75 130.79-30.75L130.79-30.75Q123.24-30.75 116.54-26.08 109.84-21.4 106.09-14.3L106.09-14.3Q103.34-9.15 103.34-5.05L103.34-5.05Q103.34-2.45 104.44-0.85L104.44-0.85Q104.99-2.2 105.79-3.3L105.79-3.3Q107.04-5.1 109.04-5.1 111.04-5.1 113.09-3.95L113.09-3.95Q115.79-2.5 119.99 0.25L119.99 0.25Q125.34-1.75 130.14-6L130.14-6Q136.49-11.6 137.04-16.85L137.04-16.85Q134.44-14 128.04-10.05L128.04-10.05 127.64-9.95Q127.59-9.95 127.59-10L127.59-10Q127.59-10.2 128.94-11.35L128.94-11.35 131.74-13.65Q135.34-16.8 136.99-18.8L136.99-18.8Q136.64-21.6 134.46-23.48 132.29-25.35 129.49-26.2L129.49-26.2Q128.09-26.55 125.16-26.65 122.24-26.75 122.24-26.85 122.24-26.95 122.34-27.05L122.34-27.05Q124.64-27.8 126.76-27.8 128.89-27.8 131.64-27.15L131.64-27.15Q136.89-25.9 138.99-22.05ZM116.94 1.2L116.94 1.2Q111.19-2.3 109.09-2.3 106.99-2.3 106.24-0.7L106.24-0.7 105.74 0.5Q107.44 1.85 109.99 1.9L109.99 1.9Q110.49 1.9 110.99 1.9L110.99 1.9Q113.89 1.9 116.94 1.2ZM153.29 0.3L153.29 0.3Q153.04 0.35 152.21 0.35 151.39 0.35 150.56-0.3 149.74-0.95 149.74-1.98 149.74-3 150.11-4.25 150.49-5.5 150.64-6.15L150.64-6.15Q144.89 0.55 141.64 0.55L141.64 0.55Q139.59 0.55 139.39-2L139.39-2Q139.39-2.2 139.39-2.35L139.39-2.35Q139.39-4.5 141.99-8.15L141.99-8.15Q140.54-6.85 139.04-5.15L139.04-5.15Q138.84-4.95 138.54-4.95L138.54-4.95Q138.34-4.95 138.34-5.2 138.34-5.45 138.79-6.05L138.79-6.05 145.69-14.15Q146.99-15.65 148.34-15.65 149.69-15.65 149.69-14.75L149.69-14.75Q149.69-14.4 149.39-14.1L149.39-14.1Q147.39-12.25 144.36-7.95 141.34-3.65 141.34-1.6L141.34-1.6Q141.34-0.7 141.94-0.7L141.94-0.7Q144.04-0.7 148.04-4.85L148.04-4.85Q149.44-6.25 153.24-11.03 157.04-15.8 158.24-15.8L158.24-15.8Q160.04-15.8 160.04-14.4L160.04-14.4Q160.04-13.9 157.94-11.5L157.94-11.5Q155.09-8.05 153.59-5.88 152.09-3.7 152.09-2.35 152.09-1 152.84-1L152.84-1Q153.19-1 153.64-1.2L153.64-1.2Q157.09-2.7 161.89-8.2L161.89-8.2Q162.19-8.55 162.49-8.55 162.79-8.55 162.79-8.22 162.79-7.9 162.44-7.5L162.44-7.5Q160.29-5 157.39-2.48 154.49 0.05 153.29 0.3ZM163.08 0.65L163.08 0.65Q162.53 0.65 162.08 0.5L162.08 0.5Q158.88-0.4 158.88-3.1L158.88-3.1Q158.88-6.6 163.28-11.2 167.68-15.8 171.18-15.8L171.18-15.8Q172.33-15.8 173.06-15.18 173.78-14.55 173.78-13.65L173.78-13.65Q173.78-10.85 169.56-8.3 165.33-5.75 162.68-5.75L162.68-5.75Q162.28-5.75 161.98-5.85L161.98-5.85Q161.23-4.5 161.23-3L161.23-3Q161.23-0.4 163.71-0.4 166.18-0.4 170.13-3.75L170.13-3.75Q173.18-6.2 175.33-8.95L175.33-8.95Q175.78-9.55 176.11-9.55 176.43-9.55 176.43-9.25 176.43-8.95 176.03-8.4L176.03-8.4Q173.33-4.85 169.53-2.1 165.73 0.65 163.08 0.65ZM172.53-13.75L172.53-13.75Q172.53-14.35 171.26-14.35 169.98-14.35 167.63-12.4L167.63-12.4Q164.48-9.8 162.73-6.95L162.73-6.95Q163.03-6.85 163.38-6.85L163.38-6.85Q165.28-6.85 168.46-8.88 171.63-10.9 172.43-13.3L172.43-13.3Q172.53-13.55 172.53-13.75ZM210.33-13.9L210.33-13.9Q207.33-13.9 205.28-15.28 203.23-16.65 203.23-18.75L203.23-18.75Q203.23-21.4 206.68-24.05L206.68-24.05Q207.28-24.5 207.58-24.5 207.88-24.5 207.88-24.3L207.88-24.3Q207.88-23.8 207.08-23.5L207.08-23.5Q204.28-21.25 204.28-18.95L204.28-18.95Q204.28-17.3 205.78-16.18 207.28-15.05 209.53-15.05L209.53-15.05Q214.43-15.05 218.78-19.75L218.78-19.75Q221.03-22.2 221.03-25.4 221.03-28.6 218.63-30.15L218.63-30.15Q216.63-31.55 213.23-31.55L213.23-31.55Q208.33-31.55 203.38-29.1L203.38-29.1Q197.28-26.15 192.35-19.93 187.43-13.7 187.43-7.95L187.43-7.95Q187.43-3.4 190.53-0.93 193.63 1.55 198.23 1.55L198.23 1.55Q203.48 1.55 208.53-1L208.53-1Q212.38-3 215.18-6.1L215.18-6.1Q215.98-7 216.43-7L216.43-7Q216.73-7 216.73-6.48 216.73-5.95 216.18-5.4L216.18-5.4Q213.53-2.6 208.53 0L208.53 0Q202.38 3.25 196.15 3.25 189.93 3.25 186.88-0.85L186.88-0.85Q184.83-3.55 184.83-7.3L184.83-7.3Q184.83-8.95 185.23-10.85L185.23-10.85Q186.58-17.25 192.33-23.3L192.33-23.3Q196.48-27.65 202.18-30.08 207.88-32.5 212.98-32.5L212.98-32.5Q215.68-32.5 217.68-31.85L217.68-31.85Q223.13-30.15 223.13-25L223.13-25Q223.13-21.85 221.28-19.55L221.28-19.55Q216.68-13.9 210.33-13.9ZM230.43-20.4Q231.18-20.4 231.85-19.93 232.53-19.45 232.53-18.8 232.53-18.15 231.9-17.68 231.28-17.2 230.53-17.2 229.78-17.2 229.15-17.75 228.53-18.3 228.53-19L228.53-19Q228.53-20.4 230.43-20.4L230.43-20.4ZM221.38 0.55L221.38 0.55Q218.83 0.55 218.83-2.75L218.83-2.75Q218.83-5.45 221.78-10.23 224.73-15 226.53-15.05L226.53-15.05Q227.03-15.05 227.65-14.65 228.28-14.25 228.28-13.85L228.28-13.85Q228.03-13.5 227.68-13.08 227.33-12.65 226.93-12.15 226.53-11.65 225.83-10.73 225.13-9.8 224.48-8.95L224.48-8.95Q220.73-4.1 220.73-2.27 220.73-0.45 221.98-0.45L221.98-0.45Q223.03-0.45 224.83-1.6L224.83-1.6Q229.03-4.2 231.48-7.3L231.48-7.3Q232.38-8.45 232.7-8.45 233.03-8.45 233.03-8.05 233.03-7.65 231.88-6.45 230.73-5.25 230.05-4.55 229.38-3.85 229.13-3.63 228.88-3.4 228.2-2.78 227.53-2.15 227.18-1.9 226.83-1.65 226.18-1.15 225.53-0.65 225.03-0.43 224.53-0.2 223.88 0.1L223.88 0.1Q222.83 0.55 221.38 0.55ZM241.07 0.25L241.07 0.25Q237.32 0.25 237.32-3.9L237.32-3.9Q237.32-6 238.42-8.5 239.52-11 240.82-12.7L240.82-12.7Q240.57-12.65 240.17-12.65L240.17-12.65Q238.97-12.65 238.17-14.35L238.17-14.35 234.47-9.55Q231.37-5.7 230.87-5.7L230.87-5.7Q230.62-5.7 230.62-5.9L230.62-5.9Q230.62-6.4 231.47-7.35L231.47-7.35Q235.82-12.4 237.62-15.9L237.62-15.9Q238.77-20.25 240.52-20.25L240.52-20.25Q241.67-20.25 241.67-19.25 241.67-18.25 240.42-16.7L240.42-16.7 239.22-15.1Q239.22-14.05 240.77-14.05L240.77-14.05Q241.67-14.05 242.77-14.7L242.77-14.7 244.07-15.5Q244.17-15.55 244.57-15.55 244.97-15.55 245.42-15.05 245.87-14.55 245.72-14.15L245.72-14.15 242.27-9.8Q239.07-5.7 239.07-3.33 239.07-0.95 241.27-0.95L241.27-0.95Q243.57-0.95 246.92-3.4L246.92-3.4Q248.92-4.85 250.57-6.65L250.57-6.65Q252.12-8.45 252.27-8.45L252.27-8.45Q252.62-8.45 252.62-8.08 252.62-7.7 252.17-7.2L252.17-7.2 250.57-5.4Q249.22-4 247.57-2.7L247.57-2.7Q243.62 0.25 241.07 0.25ZM254.37 0.65L254.37 0.65Q253.82 0.65 253.37 0.5L253.37 0.5Q250.17-0.4 250.17-3.1L250.17-3.1Q250.17-6.6 254.57-11.2 258.97-15.8 262.47-15.8L262.47-15.8Q263.62-15.8 264.35-15.18 265.07-14.55 265.07-13.48 265.07-12.4 264.42-11.23 263.77-10.05 262.47-10.05 261.17-10.05 261.17-10.85L261.17-10.85Q261.17-11.4 261.85-12.53 262.52-13.65 262.52-13.73 262.52-13.8 262.37-13.8L262.37-13.8Q260.97-13.65 258.55-11.8 256.12-9.95 255.22-8.7L255.22-8.7 253.27-5.85Q252.77-5.05 252.55-3.95 252.32-2.85 252.32-2.3 252.32-1.75 252.95-1.05 253.57-0.35 254.72-0.35L254.72-0.35Q257.22-0.35 260.92-3.28 264.62-6.2 266.62-8.85L266.62-8.85Q266.87-9.15 267.22-9.15 267.57-9.15 267.57-8.95 267.57-8.75 267.32-8.45L267.32-8.45Q264.57-4.8 260.75-2.08 256.92 0.65 254.37 0.65ZM278.72 0.3L278.72 0.3Q278.47 0.35 277.64 0.35 276.82 0.35 275.99-0.3 275.17-0.95 275.17-1.98 275.17-3 275.54-4.25 275.92-5.5 276.07-6.15L276.07-6.15Q270.32 0.55 267.07 0.55L267.07 0.55Q265.02 0.55 264.82-2L264.82-2Q264.82-2.2 264.82-2.35L264.82-2.35Q264.82-4.5 267.42-8.15L267.42-8.15Q265.97-6.85 264.47-5.15L264.47-5.15Q264.27-4.95 263.97-4.95L263.97-4.95Q263.77-4.95 263.77-5.2 263.77-5.45 264.22-6.05L264.22-6.05 271.12-14.15Q272.42-15.65 273.77-15.65 275.12-15.65 275.12-14.75L275.12-14.75Q275.12-14.4 274.82-14.1L274.82-14.1Q272.82-12.25 269.79-7.95 266.77-3.65 266.77-1.6L266.77-1.6Q266.77-0.7 267.37-0.7L267.37-0.7Q269.47-0.7 273.47-4.85L273.47-4.85Q274.87-6.25 278.67-11.03 282.47-15.8 283.67-15.8L283.67-15.8Q285.47-15.8 285.47-14.4L285.47-14.4Q285.47-13.9 283.37-11.5L283.37-11.5Q280.52-8.05 279.02-5.88 277.52-3.7 277.52-2.35 277.52-1 278.27-1L278.27-1Q278.62-1 279.07-1.2L279.07-1.2Q282.52-2.7 287.32-8.2L287.32-8.2Q287.62-8.55 287.92-8.55 288.22-8.55 288.22-8.22 288.22-7.9 287.87-7.5L287.87-7.5Q285.72-5 282.82-2.48 279.92 0.05 278.72 0.3ZM287.92-2.5Q287.92-1 289.57-1 291.22-1 293.82-2.75 296.42-4.5 298.87-7.5L298.87-7.5Q299.47-8.3 299.82-8.3 300.17-8.3 300.17-8L300.17-8Q300.17-7.7 298.12-5.4L298.12-5.4Q293.12 0.1 289.77 0.1L289.77 0.1Q288.12 0.1 286.97-0.68 285.82-1.45 285.82-3.08 285.82-4.7 286.67-6.85L286.67-6.85Q288.12-10.25 291.32-15.4L291.32-15.4Q297.17-24.9 299.62-24.9L299.62-24.9Q300.12-24.9 300.64-24.53 301.17-24.15 301.22-23.7L301.22-23.7Q300.07-22.15 296.79-17.75 293.52-13.35 292.27-11.43 291.02-9.5 290.39-8.55 289.77-7.6 289.47-7.08 289.17-6.55 288.77-5.7L288.77-5.7Q287.92-4 287.92-2.5ZM300.66 0.65L300.66 0.65Q300.11 0.65 299.66 0.5L299.66 0.5Q296.46-0.4 296.46-3.1L296.46-3.1Q296.46-6.6 300.86-11.2 305.26-15.8 308.76-15.8L308.76-15.8Q309.91-15.8 310.64-15.18 311.36-14.55 311.36-13.65L311.36-13.65Q311.36-10.85 307.14-8.3 302.91-5.75 300.26-5.75L300.26-5.75Q299.86-5.75 299.56-5.85L299.56-5.85Q298.81-4.5 298.81-3L298.81-3Q298.81-0.4 301.29-0.4 303.76-0.4 307.71-3.75L307.71-3.75Q310.76-6.2 312.91-8.95L312.91-8.95Q313.36-9.55 313.69-9.55 314.01-9.55 314.01-9.25 314.01-8.95 313.61-8.4L313.61-8.4Q310.91-4.85 307.11-2.1 303.31 0.65 300.66 0.65ZM310.11-13.75L310.11-13.75Q310.11-14.35 308.84-14.35 307.56-14.35 305.21-12.4L305.21-12.4Q302.06-9.8 300.31-6.95L300.31-6.95Q300.61-6.85 300.96-6.85L300.96-6.85Q302.86-6.85 306.04-8.88 309.21-10.9 310.01-13.3L310.01-13.3Q310.11-13.55 310.11-13.75Z" opacity="1" transform="matrix(1,0,0,1,0,0)" fill="#f36527" class="slogan-text-1" data-fill-palette-color="secondary" id="text-1"></path></svg></g></svg></g></svg></g></svg></g><g transform="matrix(1,0,0,1,411.9630051984905,0)"><svg viewBox="0 0 162.82307304149114 162.82249990647486" height="162.82249990647486" width="162.82307304149114"><g><svg xmlns="http://www.w3.org/2000/svg" xmlns:xlink="http://www.w3.org/1999/xlink" version="1.1" x="0" y="0" viewBox="7.734947204589844 7.735245704650879 84.53054809570312 84.5302505493164" enable-background="new 0 0 100 100" xml:space="preserve" height="162.82249990647486" width="162.82307304149114" class="icon-icon-0" data-fill-palette-color="accent" id="icon-0"><g fill="#f36527" data-fill-palette-color="accent"><g fill="#f36527" data-fill-palette-color="accent"><g fill="#f36527" data-fill-palette-color="accent"><path d="M28.368 14.767C42.162 16.327 48.04 25.762 49.69 30.695c1.07 3.198 1.472 5.094 1.472 9.275 0 0.817 0.044 2.076-1.054 2.216-0.77 0.099-1.209-0.509-1.273-1.182-0.289-3.026-1.159-6.569-4.008-9.85-2.253-2.594-7.472-7.802-16.652-7.021-2.669 0.228-5.052-1.868-5.129-4.564C22.964 16.703 25.531 14.446 28.368 14.767z" fill="#f36527" data-fill-palette-color="accent"></path><path d="M71.633 85.232c-13.794-1.561-19.671-10.995-21.322-15.929-1.07-3.198-1.472-5.094-1.472-9.275 0-0.817-0.044-2.076 1.054-2.216 0.77-0.099 1.209 0.509 1.273 1.182 0.289 3.026 1.159 6.569 4.008 9.85 2.253 2.594 7.472 7.802 16.652 7.021 2.669-0.228 5.052 1.868 5.129 4.564C77.037 83.296 74.47 85.553 71.633 85.232z" fill="#f36527" data-fill-palette-color="accent"></path></g><g fill="#f36527" data-fill-palette-color="accent"><path d="M14.768 71.633c1.56-13.794 10.995-19.672 15.928-21.322 3.198-1.07 5.094-1.472 9.276-1.472 0.817 0 2.076-0.045 2.216 1.054 0.098 0.77-0.509 1.209-1.182 1.273-3.026 0.288-6.569 1.159-9.849 4.008-2.594 2.254-7.802 7.473-7.021 16.652 0.228 2.669-1.868 5.052-4.564 5.129C16.704 77.036 14.447 74.47 14.768 71.633z" fill="#f36527" data-fill-palette-color="accent"></path><path d="M85.233 28.367c-1.56 13.794-10.995 19.672-15.928 21.322-3.198 1.07-5.094 1.472-9.276 1.472-0.817 0-2.076 0.045-2.216-1.054-0.098-0.77 0.509-1.209 1.182-1.273 3.026-0.288 6.569-1.159 9.849-4.008 2.594-2.254 7.802-7.473 7.021-16.652-0.228-2.669 1.868-5.052 4.564-5.129C83.297 22.964 85.554 25.53 85.233 28.367z" fill="#f36527" data-fill-palette-color="accent"></path></g></g><g fill="#f36527" data-fill-palette-color="accent"><g fill="#f36527" data-fill-palette-color="accent"><path d="M13.65 30.304c12.726-5.546 22.533-0.314 26.43 3.133 2.526 2.234 3.821 3.676 5.912 7.297 0.409 0.708 1.077 1.775 0.195 2.446-0.617 0.47-1.302 0.164-1.693-0.387-1.763-2.477-4.289-5.109-8.396-6.525-3.249-1.12-10.373-3.021-17.931 2.246-2.198 1.531-5.309 0.907-6.724-1.389C9.938 34.682 11.033 31.444 13.65 30.304z" fill="#f36527" data-fill-palette-color="accent"></path><path d="M86.351 69.695c-12.726 5.546-22.533 0.314-26.43-3.133-2.526-2.234-3.821-3.676-5.912-7.297-0.409-0.708-1.077-1.775-0.196-2.446 0.618-0.47 1.302-0.164 1.694 0.387 1.763 2.477 4.289 5.109 8.396 6.525 3.249 1.12 10.373 3.021 17.931-2.245 2.198-1.532 5.309-0.908 6.724 1.388C90.063 65.317 88.968 68.555 86.351 69.695z" fill="#f36527" data-fill-palette-color="accent"></path></g><g fill="#f36527" data-fill-palette-color="accent"><path d="M30.304 86.351c-5.546-12.726-0.314-22.533 3.133-26.43 2.235-2.525 3.676-3.821 7.298-5.912 0.708-0.409 1.775-1.076 2.445-0.195 0.47 0.617 0.164 1.302-0.387 1.693-2.477 1.764-5.109 4.289-6.525 8.396-1.12 3.248-3.021 10.372 2.246 17.931 1.531 2.198 0.908 5.31-1.389 6.725C34.683 90.062 31.445 88.968 30.304 86.351z" fill="#f36527" data-fill-palette-color="accent"></path><path d="M69.696 13.649c5.546 12.726 0.314 22.533-3.133 26.43-2.234 2.526-3.675 3.821-7.297 5.913-0.708 0.408-1.775 1.076-2.446 0.195-0.47-0.618-0.163-1.303 0.388-1.694 2.477-1.763 5.109-4.288 6.525-8.396 1.12-3.249 3.021-10.372-2.246-17.932-1.532-2.198-0.908-5.309 1.388-6.724C65.318 9.938 68.556 11.032 69.696 13.649z" fill="#f36527" data-fill-palette-color="accent"></path></g></g><g fill="#f36527" data-fill-palette-color="accent"><g fill="#f36527" data-fill-palette-color="accent"><path d="M8.671 51.118c8.248-11.166 19.357-11.539 24.456-10.502 3.305 0.672 5.147 1.272 8.769 3.363 0.708 0.408 1.82 0.999 1.392 2.021-0.299 0.716-1.045 0.793-1.66 0.512-2.765-1.263-6.269-2.28-10.533-1.453-3.374 0.654-10.494 2.57-14.406 10.911-1.138 2.425-4.144 3.44-6.518 2.159C7.646 56.766 6.976 53.414 8.671 51.118z" fill="#f36527" data-fill-palette-color="accent"></path><path d="M91.329 48.882C83.081 60.047 71.971 60.42 66.874 59.383c-3.305-0.672-5.147-1.272-8.769-3.363-0.708-0.408-1.82-0.999-1.393-2.021 0.3-0.716 1.046-0.793 1.66-0.512 2.766 1.264 6.269 2.28 10.534 1.453 3.373-0.654 10.493-2.569 14.406-10.91 1.138-2.426 4.144-3.441 6.517-2.16C92.354 43.233 93.025 46.585 91.329 48.882z" fill="#f36527" data-fill-palette-color="accent"></path></g><g fill="#f36527" data-fill-palette-color="accent"><path d="M51.119 91.329C39.953 83.081 39.58 71.972 40.617 66.874c0.673-3.305 1.272-5.147 3.364-8.77 0.409-0.708 1-1.819 2.02-1.392 0.716 0.3 0.793 1.045 0.512 1.66-1.263 2.765-2.28 6.269-1.453 10.533 0.654 3.374 2.57 10.493 10.911 14.406 2.425 1.138 3.44 4.144 2.159 6.518C56.766 92.354 53.415 93.025 51.119 91.329z" fill="#f36527" data-fill-palette-color="accent"></path><path d="M48.882 8.672c11.166 8.247 11.538 19.356 10.501 24.455-0.672 3.305-1.271 5.147-3.362 8.77-0.409 0.707-1 1.819-2.021 1.392-0.716-0.3-0.792-1.046-0.511-1.661 1.263-2.765 2.28-6.268 1.453-10.533-0.655-3.373-2.57-10.492-10.911-14.406-2.426-1.137-3.44-4.144-2.159-6.517C43.234 7.646 46.585 6.976 48.882 8.672z" fill="#f36527" data-fill-palette-color="accent"></path></g></g></g></svg></g></svg></g></svg></g><defs></defs></svg><rect width="395.52" height="112.040909828928" fill="none" stroke="none" visibility="hidden"></rect></g></svg></g></svg>